# xmcd
#
# Track frame offsets: 
#        150
#        19881
#        46486
#        69974
#        89997
#        109093
#        129641
#        150225
#        174228
#        195973
#
# Disc length: 2969 seconds
#
# Revision: 0
# Processed by: cddbd v1.5.2PL0 Copyright (c) Steve Scherf et al.
# Submitted via: ExactAudioCopy v1.0b3
#
DISCID=7b0b970a
DTITLE=Truong Vu - Tam Su Nguoi Thuong Binh
DYEAR=1998
DGENRE=
TTITLE0=Tinh em bien rong song dai
TTITLE1=Tam su nguoi thuong binh
TTITLE2=Bac mau ao tran
TTITLE3=24 gio phep
TTITLE4=Gui nguoi dau gio
TTITLE5=Mot chuyen bay dem
TTITLE6=9 thang quan truong
TTITLE7=Nguoi ve don vi moi
TTITLE8=Khu pho ngay xua
TTITLE9=Dep long nguoi yeu
EXTD=
EXTT0=
EXTT1=
EXTT2=
EXTT3=
EXTT4=
EXTT5=
EXTT6=
EXTT7=
EXTT8=
EXTT9=
PLAYORDER=
